<?xml version='1.0' encoding='utf-8'?>
<svg width="512.9999999995mm" height="409.2941920925mm" viewBox="-9.0837951652 -6.6418757961 16.4649095073 13.1364363249" version="1.1" xmlns="http://www.w3.org/2000/svg">
  <g transform="scale(1,-1)" stroke-linecap="round">
    <g fill="none" stroke="rgb(64,192,64)" stroke-width="0.03209534017020769" id="Visible">
      <path d="M 3.0790315912,-2.5563037676 A 1.375,0.7824769177209566 118.30083836457783 0,1 3.0985061953,-2.599690672" />
      <line x1="3.1864079666" y1="-3.5036548225" x2="1.1592116089" y2="-4.5952258618" />
      <path d="M 3.1864079666,-3.5036548225 A 2.1,1.195055656155643 118.30083836457783 0,1 3.20328416,-3.5239821006" />
      <line x1="3.1809888664" y1="-3.6414686555" x2="1.2382094502" y2="-4.6875842616" />
      <path d="M 1.1592116089,-4.5952258618 A 2.1,1.195055656155643 118.30083836457783 0,1 1.2382094502,-4.6875842616" />
      <line x1="3.3380352666" y1="-4.9044403198" x2="3.1027942494" y2="-5.0311089973" />
      <path d="M 3.058953755,-5.0959187055 A 2.1,1.195055656155643 118.30083836457783 0,1 3.1027942494,-5.0311089973" />
      <line x1="3.3312129488" y1="-4.8930381295" x2="2.4156688461" y2="-5.3860251181" />
      <line x1="3.0736033066" y1="-5.0756498131" x2="2.4946666874" y2="-5.3873859924" />
      <path d="M 2.4156688461,-5.3860251181 A 2.1,1.195055656155643 118.30083836457783 0,1 2.4946666874,-5.3873859924" />
      <line x1="3.4844366476" y1="-4.4766676865" x2="1.9993894822" y2="-5.2763112294" />
      <line x1="3.2356622703" y1="-4.6931094567" x2="2.0860911469" y2="-5.3121114301" />
      <path d="M 1.9993894822,-5.2763112294 A 2.1,1.195055656155643 118.30083836457783 0,1 2.0860911469,-5.3121114301" />
      <path d="M 1.4420502411,-1.5553763863 A 2.1,1.195055656155643 118.30083836457783 0,1 1.3582646725,-1.5365859754" />
      <line x1="1.6839840546" y1="-1.4251038829" x2="1.4420502411" y2="-1.5553763863" />
      <line x1="2.649693164" y1="-1.9019401653" x2="2.2956136238" y2="-2.0925990377" />
      <path d="M 2.2956136238,-2.0925990377 A 2.1,1.195055656155643 118.30083836457783 0,1 2.2118280553,-2.011990243" />
      <path d="M 2.6788038211,-2.557943573 A 2.1,1.195055656155643 118.30083836457783 0,1 2.6063583884,-2.455898702" />
      <path d="M 2.9863021039,-3.1028955124 A 2.1,1.195055656155643 118.30083836457783 0,1 2.9316339015,-2.9884816998" />
      <line x1="3.5685784578" y1="-3.9646059603" x2="3.2675335191" y2="-4.126707641" />
      <path d="M 3.2740859276,-4.2351651029 A 2.1,1.195055656155643 118.30083836457783 0,1 3.2675335191,-4.126707641" />
      <line x1="3.0837425171" y1="-5.1603092609" x2="2.7796369927" y2="-5.324058955" />
      <line x1="3.0841921961" y1="-5.1614773338" x2="2.8439117057" y2="-5.2908595831" />
      <path d="M 2.7796369927,-5.324058955 A 2.1,1.195055656155643 118.30083836457783 0,1 2.8225514421,-5.3028624829" />
      <path d="M 2.8225514421,-5.3028624829 A 2.1,1.195055656155643 118.30083836457783 0,1 2.8439117057,-5.2908595831" />
      <path d="M 3.1907859003,-3.6790334848 A 2.1,1.195055656155643 118.30083836457783 0,1 3.158752438,-3.5624168998" />
      <line x1="3.5006837955" y1="-4.4953209537" x2="3.2483114684" y2="-4.6312142145" />
      <path d="M 3.2288006129,-4.7218756319 A 2.1,1.195055656155643 118.30083836457783 0,1 3.2483114684,-4.6312142145" />
      <line x1="1.8424853569" y1="-1.7307324938" x2="0.3797923687" y2="-2.5183391306" />
      <path d="M 0.3863447772,-2.4176551338 A 2.1,1.195055656155643 118.30083836457783 0,1 0.3797923687,-2.5183391306" />
      <line x1="1.7737374324" y1="-1.6705949703" x2="0.3863447772" y2="-2.4176551338" />
      <line x1="0.9718659992" y1="-1.5435123936" x2="0.7222443948" y2="-1.6779244909" />
      <line x1="1.0238152722" y1="-1.5356608481" x2="0.6675761924" y2="-1.7274825536" />
      <path d="M 0.7222443948,-1.6779244909 A 2.1,1.195055656155643 118.30083836457783 0,1 0.6675761924,-1.7274825536" />
      <path d="M 1.047519908,-1.5312328603 A 2.1,1.195055656155643 118.30083836457783 0,1 0.9750744752,-1.5473319223" />
      <line x1="1.2823209563" y1="-1.4048010899" x2="1.047519908" y2="-1.5312328603" />
      <line x1="2.1454647988" y1="-1.6003019082" x2="1.8707796426" y2="-1.7482098108" />
      <path d="M 1.8707796426,-1.7482098108 A 2.1,1.195055656155643 118.30083836457783 0,1 1.7830986537,-1.6961995375" />
      <line x1="2.622120899" y1="-2.5427442508" x2="0.5949245413" y2="-3.6343152902" />
      <path d="M 0.5510840469,-3.5174953087 A 2.1,1.195055656155643 118.30083836457783 0,1 0.5949245413,-3.6343152902" />
      <line x1="2.5782804046" y1="-2.4259242694" x2="0.5510840469" y2="-3.5174953087" />
      <path d="M 2.5782804046,-2.4259242694 A 2.1,1.195055656155643 118.30083836457783 0,1 2.622120899,-2.5427442508" />
      <line x1="1.3499359352" y1="-1.5221331444" x2="0.4951258583" y2="-1.9824170831" />
      <line x1="1.4148419943" y1="-1.5485483722" x2="0.463092396" y2="-2.061030695" />
      <path d="M 0.4951258583,-1.9824170831 A 2.1,1.195055656155643 118.30083836457783 0,1 0.463092396,-2.061030695" />
      <line x1="2.9014376613" y1="-3.1022525957" x2="0.8742413036" y2="-4.193823635" />
      <path d="M 0.8099665906,-4.0843718067 A 2.1,1.195055656155643 118.30083836457783 0,1 0.8742413036,-4.193823635" />
      <line x1="2.8371629483" y1="-2.9928007674" x2="0.8099665906" y2="-4.0843718067" />
      <path d="M 2.8371629483,-2.9928007674 A 2.1,1.195055656155643 118.30083836457783 0,1 2.9014376613,-3.1022525957" />
      <line x1="2.2059500011" y1="-1.975525391" x2="0.4055668279" y2="-2.9449658322" />
      <line x1="2.2687473707" y1="-2.0660253541" x2="0.4250776835" y2="-3.0587739989" />
      <path d="M 0.4055668279,-2.9449658322 A 2.1,1.195055656155643 118.30083836457783 0,1 0.4250776835,-3.0587739989" />
      <path d="M 4.0673561361,1.3059316139 C 4.2811217997,1.2771409975 4.4510517617,1.1621371493 4.6291708693,1.0014886693" />
      <path d="M 3.3187332238,0.2958659617 C 3.1355020769,0.3432200497 2.9577448305,0.3760262054 2.7854614845,0.3942844289 C 2.6146562342,0.4131396353 2.4519956438,0.4183397265 2.3197985346,0.4189185727" />
      <line x1="1.2678022369" y1="-5.290118079" x2="1.5677871494" y2="-5.0046658492" />
      <line x1="1.2382094502" y1="-4.6875842616" x2="1.2678022369" y2="-5.290118079" />
      <line x1="0.7583470939" y1="-4.6945010211" x2="1.1592116089" y2="-4.5952258618" />
      <line x1="0.8742413036" y1="-4.193823635" x2="0.7583470939" y2="-4.6945010211" />
      <line x1="0.3438410444" y1="-3.988648862" x2="0.8099665906" y2="-4.0843718067" />
      <line x1="0.5949245413" y1="-3.6343152902" x2="0.3438410444" y2="-3.988648862" />
      <line x1="0.0611147698" y1="-3.2352796637" x2="0.5510840469" y2="-3.5174953087" />
      <line x1="0.4250776835" y1="-3.0587739989" x2="0.0611147698" y2="-3.2352796637" />
      <line x1="-0.0647102595" y1="-2.5013335855" x2="0.4055668279" y2="-2.9449658322" />
      <line x1="0.3797923687" y1="-2.5183391306" x2="-0.0647102595" y2="-2.5013335855" />
      <line x1="-0.0224539376" y1="-1.8520249573" x2="0.3863447772" y2="-2.4176551338" />
      <line x1="0.463092396" y1="-2.061030695" x2="-0.0224539376" y2="-1.8520249573" />
      <line x1="0.1841290759" y1="-1.3450477003" x2="0.4951258583" y2="-1.9824170831" />
      <line x1="0.6675761924" y1="-1.7274825536" x2="0.1841290759" y2="-1.3450477003" />
      <line x1="0.5366829737" y1="-1.0254489684" x2="0.7222443948" y2="-1.6779244909" />
      <line x1="0.9750744752" y1="-1.5473319223" x2="0.5366829737" y2="-1.0254489684" />
      <line x1="1.0038817948" y1="-0.9216265116" x2="1.047519908" y2="-1.5312328603" />
      <line x1="1.3582646725" y1="-1.5365859754" x2="1.0038817948" y2="-0.9216265116" />
      <line x1="1.5442128736" y1="-1.0428054108" x2="1.4420502411" y2="-1.5553763863" />
      <line x1="1.7830986537" y1="-1.6961995375" x2="1.5442128736" y2="-1.0428054108" />
      <line x1="2.1096654227" y1="-1.378218389" x2="1.8707796426" y2="-1.7482098108" />
      <line x1="2.2118280553" y1="-2.011990243" x2="2.1096654227" y2="-1.378218389" />
      <line x1="2.6499965015" y1="-1.8980625311" x2="2.2956136238" y2="-2.0925990377" />
      <line x1="2.6063583884" y1="-2.455898702" x2="2.6499965015" y2="-1.8980625311" />
      <line x1="3.1171953226" y1="-2.5561474039" x2="2.6788038211" y2="-2.557943573" />
      <line x1="2.9316339015" y1="-2.9884816998" x2="3.1171953226" y2="-2.5561474039" />
      <line x1="3.4697492204" y1="-3.2939992784" x2="2.9863021039" y2="-3.1028955124" />
      <line x1="3.158752438" y1="-3.5624168998" x2="3.4697492204" y2="-3.2939992784" />
      <line x1="3.6763322339" y1="-4.0460567776" x2="3.1907859003" y2="-3.6790334848" />
      <line x1="3.2675335191" y1="-4.126707641" x2="3.6763322339" y2="-4.0460567776" />
      <line x1="3.7185885558" y1="-4.7454962922" x2="3.2740859276" y2="-4.2351651029" />
      <line x1="3.2483114684" y1="-4.6312142145" x2="3.7185885558" y2="-4.7454962922" />
      <line x1="3.5927635265" y1="-5.3301695521" x2="3.2288006129" y2="-4.7218756319" />
      <line x1="3.1027942494" y1="-5.0311089973" x2="3.5927635265" y2="-5.3301695521" />
      <line x1="3.310037252" y1="-5.7481257722" x2="3.058953755" y2="-5.0959187055" />
      <line x1="2.8439117057" y1="-5.2908595831" x2="3.310037252" y2="-5.7481257722" />
      <line x1="2.8955312024" y1="-5.9622277083" x2="2.7796369927" y2="-5.324058955" />
      <line x1="2.4946666874" y1="-5.3873859924" x2="2.8955312024" y2="-5.9622277083" />
      <line x1="2.3860760594" y1="-5.9534514637" x2="2.4156688461" y2="-5.3860251181" />
      <line x1="2.0860911469" y1="-5.3121114301" x2="2.3860760594" y2="-5.9534514637" />
      <line x1="1.8269391482" y1="-5.7225768463" x2="1.9993894822" y2="-5.2763112294" />
      <line x1="1.6544888141" y1="-5.0717243715" x2="1.8269391482" y2="-5.7225768463" />
      <path d="M 1.5677871494,-5.0046658492 A 2.1,1.195055656155643 118.30083836457783 0,1 1.6544888141,-5.0717243715" />
      <line x1="3.2725500025" y1="-4.2004576457" x2="1.6544888141" y2="-5.0717243715" />
      <line x1="3.5397665585" y1="-3.9428271157" x2="1.5677871494" y2="-5.0046658492" />
      <line x1="2.1057861562" y1="-2.1537740035" x2="2.5782804046" y2="-2.4259242694" />
      <line x1="2.622120899" y1="-2.5427442508" x2="2.3710374021" y2="-2.8970778227" />
      <line x1="2.3710374021" y1="-2.8970778227" x2="2.8371629483" y2="-2.9928007674" />
      <line x1="2.9014376613" y1="-3.1022525957" x2="2.7855434516" y2="-3.6029299818" />
      <line x1="2.7855434516" y1="-3.6029299818" x2="3.1864079666" y2="-3.5036548225" />
      <line x1="3.2725175509" y1="-3.7408142407" x2="3.2890691448" y2="-4.077818497" />
      <line x1="2.7855434516" y1="-3.6029299818" x2="0.7583470939" y2="-4.6945010211" />
      <line x1="2.3710374021" y1="-2.8970778227" x2="0.3438410444" y2="-3.988648862" />
      <path d="M 4.6291708693,1.0014886693 Q 4.4375287048,1.1296586167 4.2420777293,1.2276128339" />
      <path d="M 2.3701168901,0.5762052776 A 0.11999999999999993,0.09425891984612539 89.74912286956288 0,0 2.3197985346,0.4189185727" />
      <path d="M 2.3701168901,0.5762052776 C 2.6552360758,0.5052832549 2.9898079157,0.418311807 3.3187332238,0.2958659617" />
      <path d="M 1.8269391482,-6.0979439438 A 3.2050000000010086,1.8238825609428764 118.30083836457783 1,1 1.8269391482,-0.8098052728" />
      <path d="M 1.9138189921,-0.664025741 A 3.3249999999999997,1.8921714555797675 -61.699161635422186 0,0 3.4902051241,-6.334657127" />
      <path d="M 6.6106395175,-4.6544174201 A 3.3249999999999997,1.8921714555797675 118.30083836457783 0,1 5.0342533855,1.0162139659" />
      <path d="M -7.875105919,3.665697566 A 0.65,0.3698981792862704 118.30083836457783 0,1 -7.566940209,3.6296305061" />
      <path d="M -7.9619857629,4.7903912875 A 0.7700000000298374,0.4381870739407153 -61.699161635422186 0,0 -7.9619857629,3.5199180342" />
      <path d="M -0.9770925558,-0.4260395914 A 0.65,0.3698981792862704 118.30083836457783 0,1 -0.6689268458,-0.4621066513" />
      <path d="M -1.0639723997,0.6986541301 A 0.7700000000298372,0.4381870739407152 -61.699161635422186 0,0 -1.0639723997,-0.5718191232" />
      <path d="M 0.3156302729,-0.1196933014 A 0.7699999999999999,0.4381870739237356 -61.699161635422186 0,0 0.5734286181,-0.3524537798" />
      <path d="M -2.3566952284,0.3923078401 A 0.65,0.3698981792862704 118.30083836457783 0,1 -2.0485295184,0.3562407802" />
      <path d="M -2.4435750723,1.5170015615 A 0.7699999999999999,0.4381870739237356 -61.699161635422186 0,0 -2.4435750723,0.2465283083" />
      <path d="M -3.7362979011,1.2106552716 A 0.65,0.3698981792862704 118.30083836457783 0,1 -3.4281321911,1.1745882117" />
      <path d="M -3.823177745,2.335348993 A 0.7699999999999999,0.4381870739237356 -61.699161635422186 0,0 -3.823177745,1.0648757398" />
      <path d="M -5.1159005737,2.0290027031 A 0.65,0.3698981792862704 118.30083836457783 0,1 -4.8077348637,1.9929356432" />
      <path d="M -5.2027804176,3.1536964245 A 0.7700000000298372,0.4381870739407152 -61.699161635422186 0,0 -5.2027804176,1.8832231712" />
      <path d="M -6.4955032463,2.8473501345 A 0.65,0.3698981792862704 118.30083836457783 0,1 -6.1873375363,2.8112830746" />
      <path d="M -6.5823830902,3.972043856 A 0.7700000000298372,0.4381870739407152 -61.699161635422186 0,0 -6.5823830902,2.7015706027" />
      <path d="M -8.183271629,4.7742420475 A 0.65,0.3698981792862704 118.30083836457783 0,1 -7.875105919,3.665697566" />
      <path d="M -1.2852582658,0.6825048901 A 0.65,0.3698981792862704 118.30083836457783 0,1 -0.9770925558,-0.4260395914" />
      <path d="M 0.0943444068,-0.1358425414 A 0.65,0.3698981792862704 118.30083836457783 0,1 0.0114350099,-0.7384598635" />
      <path d="M -2.6648609385,1.5008523216 A 0.65,0.3698981792862704 118.30083836457783 0,1 -2.3566952284,0.3923078401" />
      <path d="M -4.0444636111,2.3191997531 A 0.65,0.3698981792862704 118.30083836457783 0,1 -3.7362979011,1.2106552716" />
      <path d="M -5.4240662837,3.1375471845 A 0.65,0.3698981792862704 118.30083836457783 0,1 -5.1159005737,2.0290027031" />
      <path d="M -6.8036689564,3.955894616 A 0.65,0.3698981792862704 118.30083836457783 0,1 -6.4955032463,2.8473501345" />
      <line x1="-6.4534951137" y1="6.4860337641" x2="-7.7639327592" y2="5.7804110565" />
      <path d="M -6.4534951137,6.4860337641 A 2.0,1.138148243957755 118.30083836457783 0,1 -7.2886850238,6.5355183596" />
      <path d="M -8.5991226693,5.8298956521 A 2.0,1.138148243957755 -61.699161635422186 0,0 -7.7639327592,5.7804110565" />
      <line x1="4.6291708693" y1="1.0014886693" x2="3.3187332238" y2="0.2958659617" />
      <line x1="4.6291708693" y1="1.0014886693" x2="-6.4534951137" y2="6.4860337641" />
      <line x1="-7.7639327592" y1="5.7804110565" x2="3.3187332238" y2="0.2958659617" />
      <path d="M 5.0342533855,1.0162139659 A 3.3249999999999997,1.8921714555797675 118.30083836457783 0,1 4.0250002379,1.3350366707" />
      <path d="M 0.33743286,-0.4795288576 A 3.3249999999999997,1.8921714555797675 -61.699161635422186 0,0 1.9138189921,-0.664025741" />
      <path d="M 2.3197985346,0.4189185727 A 3.3249999999999997,1.8921714555797675 118.30083836457783 0,1 1.7564703104,0.2845708699" />
      <path d="M -6.5823830902,2.7015706027 A 0.7700000000298372,0.4381870739407152 -61.699161635422186 1,0 -6.5823830902,3.972043856" />
      <path d="M -5.2027804176,1.8832231712 A 0.7700000000298372,0.4381870739407152 -61.699161635422186 1,0 -5.2027804176,3.1536964245" />
      <path d="M -3.823177745,1.0648757398 A 0.7699999999999999,0.4381870739237356 -61.699161635422186 1,0 -3.823177745,2.335348993" />
      <path d="M -2.4435750723,0.2465283083 A 0.7699999999999999,0.4381870739237356 -61.699161635422186 1,0 -2.4435750723,1.5170015615" />
      <line x1="2.3701168901" y1="0.5762052776" x2="-7.8440318667" y2="5.6309420663" />
      <path d="M -7.8440318667,5.6309420663 A 1.8800000000000001,1.0698593493202897 118.30083836457783 0,1 -7.8440318667,2.5394323742" />
      <line x1="-7.8440318667" y1="2.5394323742" x2="-0.3777927541" y2="-2.6232955556" />
      <path d="M 1.3917349416,0.0881742238 A 3.445,1.960460350217233 -61.699161635422186 0,0 2.3701168901,0.5762052776" />
      <path d="M -0.1061081912,-0.8909242819 A 0.7699999999999999,0.4381870739237356 -61.699161635422186 0,0 0.3156302729,-0.1196933014" />
      <path d="M -1.0639723997,-0.5718191232 A 0.7700000000298372,0.4381870739407152 -61.699161635422186 1,0 -1.0639723997,0.6986541301" />
      <path d="M -7.9619857629,3.5199180342 A 0.7700000000298374,0.4381870739407153 -61.699161635422186 1,0 -7.9619857629,4.7903912875" />
      <path d="M 1.8269391482,-0.8098052728 A 3.2050000000010086,1.8238825609428764 118.30083836457783 0,1 1.8269391482,-6.0979439438" />
      <path d="M -6.3934900732,6.4908971846 A 0.12000000000000006,0.07698897378715835 -116.32970195645099 0,1 -6.4534951137,6.4860337641" />
      <path d="M -7.8254017419,2.4875125422 A 0.12000000000000006,0.06587798337767614 55.33705767347619 0,0 -7.8440318667,2.5394323742" />
      <path d="M -7.8440318667,5.6309420663 A 0.12000000000000006,0.07698897378715834 63.670298043548996 0,0 -7.7639327592,5.7804110565" />
      <path d="M 1.8525981344,-6.1543708865 C 2.4599347839,-6.5174259849 3.0576306036,-6.5718551531 3.4902051241,-6.334657127" />
      <path d="M 6.6106395175,-4.6544174201 C 6.9060144432,-4.4959599263 7.1330829938,-4.2058846088 7.2567450645,-3.8101534891 C 7.4035814387,-3.3468129581 7.4014986072,-2.7392029464 7.2469081649,-2.1010146006 C 7.1397943362,-1.6546638501 6.9599953208,-1.1950781489 6.724767836,-0.766579715 C 6.3045390106,0.0042830744 5.7027502644,0.6634893619 5.0954742432,1.0204246088" />
      <path d="M -7.566940209,3.6296305061 C -7.5444623682,3.6397555639 -7.5228709884,3.6630292895 -7.5021660698,3.6994516826 C -7.485441656,3.7284126921 -7.4735680232,3.7723551029 -7.4665451715,3.8312789151 C -7.4612091805,3.8820475301 -7.4638458418,3.9413926757 -7.4744551553,4.0093143517 C -7.492011961,4.1183536668 -7.534830772,4.2426019422 -7.5969405614,4.3564679054 C -7.638871341,4.4333401035 -7.6865211554,4.50260692 -7.7398900045,4.5642683549 C -7.8069471865,4.6402552414 -7.8724261106,4.6968205713 -7.9363267767,4.7339643447" />
      <path d="M -0.6689268458,-0.4621066513 C -0.646449005,-0.4519815934 -0.6248576253,-0.4287078679 -0.6041527066,-0.3922854747 C -0.5874282928,-0.3633244653 -0.57555466,-0.3193820545 -0.5685318083,-0.2604582423 C -0.5631958174,-0.2096896272 -0.5658324786,-0.1503444817 -0.5764417921,-0.0824228056 C -0.5939985978,0.0266165094 -0.6368174089,0.1508647848 -0.6989271983,0.264730748 C -0.7408579779,0.3416029461 -0.7885077922,0.4108697626 -0.8418766413,0.4725311976 C -0.9089338233,0.548518084 -0.9744127474,0.605083414 -1.0383134135,0.6422271874" />
      <path d="M 0.5527652711,-0.3635802359 Q 0.4451516163,-0.2364307151 0.3412892591,-0.1761202441" />
      <path d="M -2.0485295184,0.3562407802 C -2.0260516776,0.366365838 -2.0044602979,0.3896395636 -1.9837553793,0.4260619567 C -1.9670309654,0.4550229662 -1.9551573326,0.498965377 -1.9481344809,0.5578891892 C -1.94279849,0.6086578042 -1.9454351513,0.6680029498 -1.9560444648,0.7359246258 C -1.9736012704,0.8449639409 -2.0164200815,0.9692122163 -2.0785298709,1.0830781795 C -2.1204606505,1.1599503775 -2.1681104648,1.2292171941 -2.2214793139,1.290878629 C -2.288536496,1.3668655155 -2.35401542,1.4234308454 -2.4179160861,1.4605746188" />
      <path d="M -3.4281321911,1.1745882117 C -3.4056543503,1.1847132695 -3.3840629705,1.207986995 -3.3633580519,1.2444093882 C -3.3466336381,1.2733703977 -3.3347600053,1.3173128085 -3.3277371536,1.3762366207 C -3.3224011626,1.4270052357 -3.3250378239,1.4863503813 -3.3356471374,1.5542720573 C -3.3532039431,1.6633113724 -3.3960227541,1.7875596478 -3.4581325435,1.9014256109 C -3.5000633231,1.978297809 -3.5477131375,2.0475646255 -3.6010819866,2.1092260605 C -3.6681391686,2.185212947 -3.7336180927,2.2417782769 -3.7975187588,2.2789220503" />
      <path d="M -4.8077348637,1.9929356432 C -4.7852570229,2.003060701 -4.7636656432,2.0263344265 -4.7429607245,2.0627568197 C -4.7262363107,2.0917178291 -4.7143626779,2.1356602399 -4.7073398262,2.1945840521 C -4.7020038353,2.2453526672 -4.7046404965,2.3046978127 -4.71524981,2.3726194888 C -4.7328066157,2.4816588038 -4.7756254268,2.6059070793 -4.8377352162,2.7197730424 C -4.8796659958,2.7966452405 -4.9273158101,2.865912057 -4.9806846592,2.927573492 C -5.0477418412,3.0035603784 -5.1132207653,3.0601257084 -5.1771214314,3.0972694818" />
      <path d="M -6.1873375363,2.8112830746 C -6.1648596955,2.8214081325 -6.1432683158,2.844681858 -6.1225633972,2.8811042512 C -6.1058389833,2.9100652606 -6.0939653505,2.9540076714 -6.0869424988,3.0129314836 C -6.0816065079,3.0637000987 -6.0842431692,3.1230452442 -6.0948524827,3.1909669203 C -6.1124092883,3.3000062353 -6.1552280994,3.4242545107 -6.2173378888,3.5381204739 C -6.2592686684,3.614992672 -6.3069184827,3.6842594885 -6.3602873318,3.7459209235 C -6.4273445139,3.8219078099 -6.4928234379,3.8784731399 -6.556724104,3.9156169133" />
      <line x1="6.6106395175" y1="-4.6544174201" x2="3.4902051241" y2="-6.334657127" />
      <line x1="-7.2886850238" y1="6.5355183596" x2="-8.5991226693" y2="5.8298956521" />
      <line x1="1.7564703104" y1="0.2845708699" x2="0.33743286" y2="-0.4795288576" />
      <path d="M -7.2886850238,6.5355183596 C -7.1999161979,6.5834924978 -7.1017165523,6.6124579382 -6.9940860869,6.6224146809 C -6.8143658423,6.6388810243 -6.6076176676,6.5971426199 -6.3934900732,6.4908971846" />
      <line x1="4.242077249" y1="1.2276104739" x2="-6.3934900732" y2="6.4908971846" />
      <path d="M -6.8036689564,3.955894616 C -6.7898268197,3.9636511395 -6.7729762192,3.9688261237 -6.7531171548,3.9714195686 C -6.7136132995,3.9761977191 -6.6480719283,3.9694095779 -6.556724104,3.9156169133" />
      <path d="M -5.4240662837,3.1375471845 C -5.4102241471,3.145303708 -5.3933735466,3.1504786922 -5.3735144822,3.1530721372 C -5.3340106268,3.1578502876 -5.2684692556,3.1510621465 -5.1771214314,3.0972694818" />
      <path d="M -4.0444636111,2.3191997531 C -4.0306214745,2.3269562765 -4.013770874,2.3321312607 -3.9939118096,2.3347247057 C -3.9544079542,2.3395028561 -3.888866583,2.332714715 -3.7975187588,2.2789220503" />
      <path d="M -2.6648609385,1.5008523216 C -2.6510188018,1.5086088451 -2.6341682013,1.5137838293 -2.6143091369,1.5163772742 C -2.5748052815,1.5211554247 -2.5092639104,1.5143672835 -2.4179160861,1.4605746188" />
      <line x1="-0.3713074343" y1="-2.6668175419" x2="-7.8254017419" y2="2.4875125422" />
      <path d="M -7.8254017419,2.4875125422 C -8.1653581212,2.7208304082 -8.4934839376,3.1077007775 -8.7209180508,3.5470732993 C -8.9369463844,3.9600464105 -9.061575103,4.4144995879 -9.0674187549,4.8019807882 C -9.0698062246,4.9444205144 -9.0576686264,5.0758788778 -9.0310059604,5.1963558783 C -8.990474792,5.3746841996 -8.9239290281,5.5208522351 -8.8313686686,5.6348599846 C -8.7643594411,5.7177627043 -8.686944108,5.7827745935 -8.5991226693,5.8298956521" />
      <path d="M 0.0943444068,-0.1358425414 C 0.1081865434,-0.1280860179 0.1250371439,-0.1229110337 0.1448962083,-0.1203175887 C 0.1844000637,-0.1155394383 0.2499414349,-0.1223275794 0.3412892591,-0.1761202441" />
      <path d="M -1.2852582658,0.6825048901 C -1.2714161292,0.6902614136 -1.2545655287,0.6954363978 -1.2347064643,0.6980298427 C -1.1952026089,0.7028079932 -1.1296612377,0.696019852 -1.0383134135,0.6422271874" />
      <path d="M -8.183271629,4.7742420475 C -8.1694294924,4.781998571 -8.1525788919,4.7871735552 -8.1327198275,4.7897670001 C -8.0932159721,4.7945451506 -8.0276746009,4.7877570094 -7.9363267767,4.7339643447" />
      <path d="M 4.0071534747,1.343868605 C 4.3401661135,1.3550248308 4.7175507673,1.2451970221 5.0954742432,1.0204246088" />
      <path d="M 1.8525981344,-6.1543708865 C 1.2324389846,-5.7900656753 0.6183004889,-5.1100132667 0.1968758776,-4.3186160789 C -0.0210936293,-3.9122485594 -0.1890786415,-3.4796918885 -0.2926902794,-3.0581790758 C -0.4550855525,-2.4036249593 -0.4574852779,-1.7795578869 -0.3037107212,-1.3081821478 C -0.1789986252,-0.9203506328 0.0459794159,-0.6359159607 0.33743286,-0.4795288576" />
    </g>
  </g>
</svg>